<?xml version="1.0" standalone="no"?>
<!DOCTYPE svg PUBLIC "-//W3C//DTD SVG 20010904//EN"
 "http://www.w3.org/TR/2001/REC-SVG-20010904/DTD/svg10.dtd">
<svg version="1.0" xmlns="http://www.w3.org/2000/svg"
 width="316.000000pt" height="316.000000pt" viewBox="0 0 316.000000 316.000000"
 preserveAspectRatio="xMidYMid meet">
<metadata>
Created by potrace 1.11, written by Peter Selinger 2001-2013
</metadata>
<g transform="translate(0.000000,316.000000) scale(0.100000,-0.100000)"
fill="#000000" stroke="none">
<path d="M1510 3006 c-3 -3 -35 -8 -70 -11 -36 -3 -72 -8 -80 -10 -8 -3 -35
-7 -60 -10 -138 -17 -417 -141 -568 -251 -117 -87 -332 -314 -332 -352 0 -4
-9 -17 -19 -29 -37 -39 -150 -281 -156 -333 0 -3 -4 -11 -8 -17 -5 -7 -6 -13
-3 -13 3 0 1 -12 -5 -27 -12 -31 -14 -38 -34 -144 -19 -101 -20 -352 -1 -449
1 -8 6 -31 10 -50 4 -19 8 -42 10 -50 1 -8 9 -35 16 -60 7 -25 15 -51 16 -59
17 -91 183 -395 246 -452 10 -9 18 -21 18 -26 0 -5 44 -51 97 -102 94 -89 289
-231 318 -231 7 0 15 -4 17 -8 7 -18 256 -113 333 -127 11 -2 31 -6 45 -9 14
-2 36 -7 50 -10 23 -5 140 -18 165 -18 101 0 310 15 310 22 0 1 11 4 25 6 231
30 528 184 718 373 144 142 182 194 273 368 67 128 113 259 134 378 2 17 7 41
10 55 5 21 9 92 16 270 0 19 0 37 -1 40 -1 3 -3 19 -5 36 -11 104 -14 131 -19
144 -3 8 -7 26 -10 40 -4 27 -25 105 -34 130 -3 8 -6 17 -7 20 -11 47 -97 230
-138 295 -71 113 -208 267 -312 351 -101 82 -265 178 -365 213 -19 7 -44 17
-55 21 -82 34 -239 68 -351 76 -88 6 -83 6 -142 2 -23 -2 -43 1 -45 5 -1 5 -5
6 -7 3z"/>
</g>
</svg>
